<svg width="84" height="84" viewBox="0 0 84 84" fill="none" xmlns="http://www.w3.org/2000/svg">
<path d="M53.7636 39.1493C55.3818 40.3247 55.4185 42.7244 53.8371 43.9487L38.5865 55.7556C36.615 57.282 33.75 55.8768 33.75 53.3835L33.75 30.4994C33.75 28.0484 36.5299 26.6317 38.513 28.0721L53.7636 39.1493Z" fill="#579D45"/>
<path d="M8.5 42C8.5 23.5084 23.5084 8.5 42 8.5C60.4916 8.5 75.5 23.5084 75.5 42C75.5 60.4916 60.4916 75.5 42 75.5C23.5084 75.5 8.5 60.4916 8.5 42ZM33.5 29.75V54.25C33.5 54.8536 33.6681 55.4452 33.9854 55.9586C34.3027 56.4721 34.7567 56.887 35.2966 57.1569C35.8364 57.4268 36.4407 57.5411 37.0419 57.4869C37.6428 57.4327 38.2168 57.2123 38.6996 56.8503C38.6997 56.8502 38.6999 56.8501 38.7 56.85L55.0378 44.6053C55.0391 44.6044 55.0404 44.6034 55.0417 44.6024C56.7911 43.3028 56.7911 40.6972 55.0417 39.3976C55.0404 39.3966 55.0391 39.3956 55.0378 39.3947L38.7 27.15C38.6999 27.1499 38.6997 27.1498 38.6996 27.1497C38.2168 26.7877 37.6428 26.5673 37.0419 26.5131C36.4407 26.4589 35.8364 26.5732 35.2966 26.8431C34.7567 27.113 34.3027 27.5279 33.9854 28.0414C33.6681 28.5548 33.5 29.1464 33.5 29.75Z" stroke="#579D45" stroke-width="3"/>
</svg>
